Title:  Rammbock (2010)
aka: Siege of The Dead: Rammbock (2010) (German DVD)
aka: RAMMBOCK: BERLIN UNDEAD (May 2011) (USA theatrical)

[Currently in Release in USA @ AMC Theaters \\\\\\\\\\\\\\\\\\\\\\\\\\\\\\\"Bloody Disgusting Night Terrors\\\\\\\\\\\\\\\\\\\\\\\\\\\\\\\"
 monthly limited feature.
 Have only Updated and recompiled here into MKV format HD with English subtitles
 muxed in  for you convenience from files previously posted here @ TPB.
 Essentially still \\\\\\\\\\\\\\\\\\\\\\\\\\\\\\\"first gen\\\\\\\\\\\\\\\\\\\\\\\\\\\\\\\" Video & Audio. a \\\\\\\\\\\\\\\\\\\\\\\\\\\\\\\"10/10\\\\\\\\\\\\\\\\\\\\\\\\\\\\\\\" by compare to original
 rip. 
 ALL credit for film upload should be given to all original post-ers !!]

This Month\\\\\\\\\\\\\\\\\\\\\\\\\\\\\\\'s Feature: RAMMBOCK: BERLIN UNDEAD

After a virus outbreak transforms the majority of Berlin\\\\\\\\\\\\\\\\\\\\\\\\\\\\\\\'s population into ravenous zombies, Michael braves the streets in a seemingly hopeless search for his ex-fiancée, Gabi.

This German horror flick described as a \\\\\\\\\\\\\\\\\\\\\\\\\\\\\\\"hide and seek with zombies,\\\\\\\\\\\\\\\\\\\\\\\\\\\\\\\" debuted at the 2010 Cannes Film Festival to rave reviews


Country.......: Germany
Genre.........: Horror
Date release..: 19.01.2010 [World]
Director......: Marvin Kren
Writers.......: Benjamin Hessler
Duration......: 62 min.
More..........: http://www.imdb.com/title/tt1583356
Trailer.......: http://www.imdb.com/video/wab/vi2076575257


Pilot :
Michael comes to Berlin to visit his ex-girlfriend Gabi. 
He could not choose a worse time. 
The city just broke a strange epidemic that turns people in a maniacal killer. 
Michael anxiously discovers that Gabi is not in the apartment. 
Instead, it is just a young Harper, assisting a plumber, and....

Cast :
Sebastian Achilles 	... 	Kai
Ingrid Beerbaum 	... 	Stimme TV Moderatorin
Carsten Behrendt 	... 	Manni
Melanie Berke 	... 	Ina Muller
Sabrina Caramanna 	... 	Zombie
Emily Cox 	... 	Anita
Glen Curtis 	... 	Zombie
Michael Fuith 	... 	Michael
Mila Gach 	... 	Stimme Radiodurchsage
Harald Geil 	... 	Thorsten
Anna Graczyk 	... 	Gabi (as Anka Graczyk)
Jorn Hentschel 	... 	Dominik
Eckehard Hoffmann 	... 	Polizeisprecher
Arno Kolker 	... 	Handwerker
Brigitte Kren 	... 	Frau Bramkamp 



Screen :  
http://img822.imageshack.us/img822/7607/rammbock2010s4.jpg  
http://img17.imageshack.us/img17/3291/rammbock2010s1.jpg  
http://img171.imageshack.us/img171/2010/rammbock2010s2.jpg  
http://img638.imageshack.us/img638/2696/rammbock2010s3.jpg
( also in torrent)


Data Technical :


Complete name                    : Rammbock 2010 [DVDRip.XviD] [English].mkv
Format                           : Matroska
File size                        : 696 MiB
Duration                         : 1h 1mn
Overall bit rate                 : 1 582 Kbps
Encoded date                     : UTC 2011-05-14 22:01:37
Writing application              : mkvmerge v4.4.0 (\\\\\\\\\\\\\\\\\\\\\\\\\\\\\\\'Die Wiederkehr\\\\\\\\\\\\\\\\\\\\\\\\\\\\\\\') built on Oct 31 2010 21:52:48
Writing library                  : libebml v1.0.0 + libmatroska v1.0.0

Video
ID                               : 1
Format                           : MPEG-4 Visual
Format profile                   : Advanced Simple@L5
Format settings, BVOP            : Yes
Format settings, QPel            : No
Format settings, GMC             : No warppoints
Format settings, Matrix          : Default (H.263)
Codec ID                         : XVID
Codec ID/Hint                    : XviD
Duration                         : 1h 1mn
Bit rate                         : 1 359 Kbps
Width                            : 624 pixels
Height                           : 352 pixels
Display aspect ratio             : 16:9
Frame rate                       : 25.000 fps
Color space                      : YUV
Chroma subsampling               : 4:2:0
Bit depth                        : 8 bits
Scan type                        : Progressive
Compression mode                 : Lossy
Bits/(Pixel*Frame)               : 0.247
Stream size                      : 598 MiB (86%)
Writing library                  : XviD 1.2.1 (UTC 2008-12-04)

Audio
ID                               : 2
Audio Language: German
Format                           : AC-3
Format/Info                      : Audio Coding 3
Mode extension                   : CM (complete main)
Muxing mode                      : Header stripping
Codec ID                         : A_AC3
Duration                         : 1h 1mn
Bit rate mode                    : Constant
Bit rate                         : 192 Kbps
Channel(s)                       : 2 channels
Channel positions                : Front: L R
Sampling rate                    : 48.0 KHz
Bit depth                        : 16 bits
Compression mode                 : Lossy
Stream size                      : 84.5 MiB (12%)

Text

ID                               : 3
Subtitles Language.: English
Format                           : UTF-8
Codec ID                         : S_TEXT/UTF8
Codec ID/Info                    : UTF-8 Plain Text